grf
version=1
nRows=19
nColumns=37
inDegrees=no
endheader
time	ground_force_1_vx	ground_force_1_vy	ground_force_1_vz	ground_force_1_px	ground_force_1_py	ground_force_1_pz	ground_moment_1_mx	ground_moment_1_my	ground_moment_1_mz	ground_force_2_vx	ground_force_2_vy	ground_force_2_vz	ground_force_2_px	ground_force_2_py	ground_force_2_pz	ground_moment_2_mx	ground_moment_2_my	ground_moment_2_mz	ground_force_3_vx	ground_force_3_vy	ground_force_3_vz	ground_force_3_px	ground_force_3_py	ground_force_3_pz	ground_moment_3_mx	ground_moment_3_my	ground_moment_3_mz	ground_force_4_vx	ground_force_4_vy	ground_force_4_vz	ground_force_4_px	ground_force_4_py	ground_force_4_pz	ground_moment_4_mx	ground_moment_4_my	ground_moment_4_mz
      1.63000000	      0.00000000	     -0.00000000	      0.00000000	      0.00000000	      0.00000000	      0.00000000	      0.00000000	      0.00000000	      0.00000000	     -0.48505217	     -0.30911618	   -323.59002686	   -310.73009313	  -1117.57618926	      0.00000000	      0.00000000	      0.00000000	   3480.04441338	      1.33066164	     -3.01650840	   -325.75848389	   -320.84905628	   -733.31471364	      0.00000000	      0.00000000	     -0.00000000	  -3091.86906484	      0.00000000	     -0.00000000	      0.00000000	      0.00000000	      0.00000000	      0.00000000	      0.00000000	      0.00000000	      0.00000000
      1.64000000	      0.00000000	     -0.00000000	      0.00000000	      0.00000000	      0.00000000	      0.00000000	      0.00000000	      0.00000000	      0.00000000	     -0.82195026	     -0.90832180	   -325.48904419	   -310.65578585	  -1119.17180053	      0.00000000	      0.00000000	      0.00000000	   3274.06650020	      1.34752359	     -2.24161822	   -325.47570801	   -321.39893536	   -734.48801222	      0.00000000	      0.00000000	     -0.00000000	  -2963.65409416	      0.00000000	     -0.00000000	      0.00000000	      0.00000000	      0.00000000	      0.00000000	      0.00000000	      0.00000000	      0.00000000
      1.65000000	      0.00000000	     -0.00000000	      0.00000000	      0.00000000	      0.00000000	      0.00000000	      0.00000000	      0.00000000	      0.00000000	     -1.53257799	     -0.67712802	   -326.05361938	   -310.72877152	  -1118.82550036	      0.00000000	      0.00000000	      0.00000000	   3250.91924136	      1.57965117	     -1.53709573	   -327.43676758	   -322.21965465	   -733.79849603	      0.00000000	      0.00000000	     -0.00000000	  -2837.14825702	      0.00000000	     -0.00000000	      0.00000000	      0.00000000	      0.00000000	      0.00000000	      0.00000000	      0.00000000	      0.00000000
      1.66000000	      0.00000000	     -0.00000000	      0.00000000	      0.00000000	      0.00000000	      0.00000000	      0.00000000	      0.00000000	      0.00000000	     -1.57062459	     -0.24982467	   -326.61926270	   -310.42722987	  -1118.85968049	      0.00000000	      0.00000000	      0.00000000	   3299.70696290	      1.81070224	     -1.85392388	   -327.71307373	   -322.69759467	   -735.02431692	      0.00000000	      0.00000000	     -0.00000000	  -2901.09516936	      0.00000000	     -0.00000000	      0.00000000	      0.00000000	      0.00000000	      0.00000000	      0.00000000	      0.00000000	      0.00000000
      1.67000000	      0.00000000	     -0.00000000	      0.00000000	      0.00000000	      0.00000000	      0.00000000	      0.00000000	      0.00000000	      0.00000000	     -1.65938377	     -0.71310008	   -325.27874756	   -311.10435292	  -1118.73243351	      0.00000000	      0.00000000	      0.00000000	   3232.43755369	      1.43706146	     -2.03139884	   -327.78375244	   -322.71668077	   -734.79277661	      0.00000000	      0.00000000	     -0.00000000	  -2839.94773903	      0.00000000	     -0.00000000	      0.00000000	      0.00000000	      0.00000000	      0.00000000	      0.00000000	      0.00000000	      0.00000000
      1.68000000	      0.00000000	     -0.00000000	      0.00000000	      0.00000000	      0.00000000	      0.00000000	      0.00000000	      0.00000000	      0.00000000	     -1.48105407	     -0.58842015	   -325.56002808	   -311.78585091	  -1119.28337213	      0.00000000	      0.00000000	      0.00000000	   2912.66575810	      1.41937248	     -1.85415381	   -328.41250610	   -323.31447995	   -735.14341564	      0.00000000	      0.00000000	     -0.00000000	  -2838.37717636	      0.00000000	     -0.00000000	      0.00000000	      0.00000000	      0.00000000	      0.00000000	      0.00000000	      0.00000000	      0.00000000
      1.69000000	      0.00000000	     -0.00000000	      0.00000000	      0.00000000	      0.00000000	      0.00000000	      0.00000000	      0.00000000	      0.00000000	     -0.53526306	     -0.71153927	   -326.55734253	   -311.90163907	  -1119.68471999	      0.00000000	      0.00000000	      0.00000000	   3031.40888602	      2.26995008	     -1.58979044	   -328.76220703	   -324.10244156	   -735.84140514	      0.00000000	      0.00000000	     -0.00000000	  -2987.97019291	      0.00000000	     -0.00000000	      0.00000000	      0.00000000	      0.00000000	      0.00000000	      0.00000000	      0.00000000	      0.00000000
      1.70000000	      0.00000000	     -0.00000000	      0.00000000	      0.00000000	      0.00000000	      0.00000000	      0.00000000	      0.00000000	      0.00000000	     -0.05179158	     -0.46217823	   -325.34420776	   -312.51869231	  -1118.89980789	      0.00000000	      0.00000000	      0.00000000	   3215.37933277	      1.89605063	     -1.41314706	   -327.50421143	   -325.14409818	   -736.38214638	      0.00000000	      0.00000000	     -0.00000000	  -3015.52735731	      0.00000000	     -0.00000000	      0.00000000	      0.00000000	      0.00000000	      0.00000000	      0.00000000	      0.00000000	      0.00000000
      1.71000000	      0.00000000	     -0.00000000	      0.00000000	      0.00000000	      0.00000000	      0.00000000	      0.00000000	      0.00000000	      0.00000000	     -0.19454017	     -0.80217361	   -323.50146484	   -312.50597859	  -1118.22840139	      0.00000000	      0.00000000	      0.00000000	   3096.88724365	      2.07263320	     -1.62458822	   -327.21859741	   -325.07116413	   -736.14142734	      0.00000000	      0.00000000	     -0.00000000	  -3059.78848223	      0.00000000	     -0.00000000	      0.00000000	      0.00000000	      0.00000000	      0.00000000	      0.00000000	      0.00000000	      0.00000000
      1.72000000	      0.00000000	     -0.00000000	      0.00000000	      0.00000000	      0.00000000	      0.00000000	      0.00000000	      0.00000000	      0.00000000	     -0.12417235	     -0.89491260	   -323.28378296	   -312.97710954	  -1119.94999784	      0.00000000	      0.00000000	      0.00000000	   2893.43317117	      2.30307834	     -1.69374428	   -325.95724487	   -325.73667251	   -736.41141162	      0.00000000	     -0.00000000	     -0.00000000	  -2926.81496320	      0.00000000	     -0.00000000	      0.00000000	      0.00000000	      0.00000000	      0.00000000	      0.00000000	      0.00000000	      0.00000000
      1.73000000	      0.00000000	     -0.00000000	      0.00000000	      0.00000000	      0.00000000	      0.00000000	      0.00000000	      0.00000000	      0.00000000	      0.66361076	     -0.96519578	   -320.47207642	   -312.99476090	  -1119.76763663	      0.00000000	      0.00000000	      0.00000000	   2964.97049251	      2.57671516	     -1.64360034	   -325.97119141	   -326.07764109	   -735.73944633	      0.00000000	      0.00000000	     -0.00000000	  -2977.96412287	      0.00000000	     -0.00000000	      0.00000000	      0.00000000	      0.00000000	      0.00000000	      0.00000000	      0.00000000	      0.00000000
      1.74000000	      0.00000000	     -0.00000000	      0.00000000	      0.00000000	      0.00000000	      0.00000000	      0.00000000	      0.00000000	      0.00000000	      1.02098846	     -0.71802449	   -320.11834717	   -313.38476390	  -1119.18736814	      0.00000000	      0.00000000	      0.00000000	   3022.04497378	      3.08999603	     -1.53584804	   -323.95413208	   -326.14432966	   -736.23889583	      0.00000000	      0.00000000	     -0.00000000	  -2814.75125322	      0.00000000	     -0.00000000	      0.00000000	      0.00000000	      0.00000000	      0.00000000	      0.00000000	      0.00000000	      0.00000000
      1.75000000	      0.00000000	     -0.00000000	      0.00000000	      0.00000000	      0.00000000	      0.00000000	      0.00000000	      0.00000000	      0.00000000	      0.58993417	     -0.41114366	   -320.57330322	   -313.69867256	  -1119.98636305	      0.00000000	      0.00000000	      0.00000000	   2760.03084281	      3.03610965	     -0.93182738	   -323.66357422	   -326.58676426	   -736.97175620	      0.00000000	      0.00000000	     -0.00000000	  -2906.45543415	      0.00000000	     -0.00000000	      0.00000000	      0.00000000	      0.00000000	      0.00000000	      0.00000000	      0.00000000	      0.00000000
      1.76000000	      0.00000000	     -0.00000000	      0.00000000	      0.00000000	      0.00000000	      0.00000000	      0.00000000	      0.00000000	      0.00000000	      0.94691694	     -0.17826080	   -319.41085815	   -313.94170156	  -1120.07832423	      0.00000000	      0.00000000	      0.00000000	   3038.84269382	      3.31654307	     -0.68643942	   -322.61608887	   -327.19585520	   -735.86514471	      0.00000000	      0.00000000	     -0.00000000	  -2838.09111749	      0.00000000	     -0.00000000	      0.00000000	      0.00000000	      0.00000000	      0.00000000	      0.00000000	      0.00000000	      0.00000000
      1.77000000	      0.00000000	     -0.00000000	      0.00000000	      0.00000000	      0.00000000	      0.00000000	      0.00000000	      0.00000000	      0.00000000	      0.15772712	      0.37007385	   -320.06298828	   -314.05600094	  -1119.13570327	      0.00000000	      0.00000000	      0.00000000	   2732.25791002	      3.56203361	     -1.03257862	   -321.13882446	   -327.00101235	   -736.96621146	      0.00000000	      0.00000000	     -0.00000000	  -2756.90319119	      0.00000000	     -0.00000000	      0.00000000	      0.00000000	      0.00000000	      0.00000000	      0.00000000	      0.00000000	      0.00000000
      1.78000000	      0.00000000	     -0.00000000	      0.00000000	      0.00000000	      0.00000000	      0.00000000	      0.00000000	      0.00000000	      0.00000000	      0.52209646	      0.48753259	   -321.47674561	   -313.69811822	  -1120.00336373	      0.00000000	      0.00000000	      0.00000000	   2865.06571604	      4.08069606	     -0.99783623	   -320.57318115	   -326.76351804	   -736.07230546	      0.00000000	     -0.00000000	     -0.00000000	  -2706.82461146	      0.00000000	     -0.00000000	      0.00000000	      0.00000000	      0.00000000	      0.00000000	      0.00000000	      0.00000000	      0.00000000
      1.79000000	      0.00000000	     -0.00000000	      0.00000000	      0.00000000	      0.00000000	      0.00000000	      0.00000000	      0.00000000	      0.00000000	      0.51402092	     -0.12308408	   -320.08190918	   -314.45409748	  -1119.46031613	      0.00000000	      0.00000000	      0.00000000	   2726.46837311	      4.35135025	     -1.22377534	   -320.65435791	   -327.18449339	   -735.99111234	      0.00000000	      0.00000000	     -0.00000000	  -2828.77441600	      0.00000000	     -0.00000000	      0.00000000	      0.00000000	      0.00000000	      0.00000000	      0.00000000	      0.00000000	      0.00000000
      1.80000000	      0.00000000	     -0.00000000	      0.00000000	      0.00000000	      0.00000000	      0.00000000	      0.00000000	      0.00000000	      0.00000000	      0.81519192	      0.16597451	   -319.17727661	   -314.04029391	  -1120.45374752	      0.00000000	      0.00000000	      0.00000000	   2713.03344608	      4.43553919	     -1.18171878	   -320.78634644	   -327.85852936	   -736.22891452	      0.00000000	      0.00000000	     -0.00000000	  -2727.64724470	      0.00000000	     -0.00000000	      0.00000000	      0.00000000	      0.00000000	      0.00000000	      0.00000000	      0.00000000	      0.00000000
      1.81000000	      0.00000000	     -0.00000000	      0.00000000	      0.00000000	      0.00000000	      0.00000000	      0.00000000	      0.00000000	      0.00000000	      0.63827729	     -0.02372809	   -318.30151367	   -315.15952976	  -1119.78126469	      0.00000000	      0.00000000	      0.00000000	   2657.92264523	      4.52424998	     -1.13631232	   -319.86981201	   -327.79134229	   -736.91052356	      0.00000000	     -0.00000000	     -0.00000000	  -2688.00786652	      0.00000000	     -0.00000000	      0.00000000	      0.00000000	      0.00000000	      0.00000000	      0.00000000	      0.00000000	      0.00000000
